<mxfile host="65bd71144e">
    <diagram id="prtHgNgQTEPvFCAcTncT" name="Page-1">
        <mxGraphModel dx="1172" dy="784" grid="1" gridSize="10" guides="1" tooltips="1" connect="1" arrows="1" fold="1" page="1" pageScale="1" pageWidth="827" pageHeight="1169" math="0" shadow="0">
            <root>
                <mxCell id="0"/>
                <mxCell id="1" parent="0"/>
                <mxCell id="INLSH4rgKowV9P2yVhLp-17" style="edgeStyle=orthogonalEdgeStyle;rounded=0;orthogonalLoop=1;jettySize=auto;html=1;entryX=0;entryY=0.5;entryDx=0;entryDy=0;entryPerimeter=0;startArrow=classic;startFill=1;" parent="1" source="INLSH4rgKowV9P2yVhLp-2" target="INLSH4rgKowV9P2yVhLp-19" edge="1">
                    <mxGeometry relative="1" as="geometry">
                        <mxPoint x="431.4000000000001" y="600.75" as="targetPoint"/>
                    </mxGeometry>
                </mxCell>
                <mxCell id="INLSH4rgKowV9P2yVhLp-2" value="Server" style="swimlane;whiteSpace=wrap;html=1;" parent="1" vertex="1">
                    <mxGeometry x="-187" y="390" width="430" height="425" as="geometry"/>
                </mxCell>
                <mxCell id="INLSH4rgKowV9P2yVhLp-18" style="rounded=0;orthogonalLoop=1;jettySize=auto;html=1;entryX=1;entryY=0.5;entryDx=0;entryDy=0;startArrow=classic;startFill=1;" parent="INLSH4rgKowV9P2yVhLp-2" source="INLSH4rgKowV9P2yVhLp-9" target="INLSH4rgKowV9P2yVhLp-2" edge="1">
                    <mxGeometry relative="1" as="geometry"/>
                </mxCell>
                <mxCell id="INLSH4rgKowV9P2yVhLp-9" value="PHP" style="whiteSpace=wrap;html=1;aspect=fixed;" parent="INLSH4rgKowV9P2yVhLp-2" vertex="1">
                    <mxGeometry x="250" y="92.5" width="80" height="80" as="geometry"/>
                </mxCell>
                <mxCell id="INLSH4rgKowV9P2yVhLp-15" style="rounded=0;orthogonalLoop=1;jettySize=auto;html=1;entryX=0;entryY=0.5;entryDx=0;entryDy=0;startArrow=classic;startFill=1;" parent="INLSH4rgKowV9P2yVhLp-2" source="INLSH4rgKowV9P2yVhLp-8" target="INLSH4rgKowV9P2yVhLp-9" edge="1">
                    <mxGeometry relative="1" as="geometry"/>
                </mxCell>
                <mxCell id="INLSH4rgKowV9P2yVhLp-8" value="Nginx" style="whiteSpace=wrap;html=1;aspect=fixed;" parent="INLSH4rgKowV9P2yVhLp-2" vertex="1">
                    <mxGeometry x="80" y="172.5" width="80" height="80" as="geometry"/>
                </mxCell>
                <mxCell id="INLSH4rgKowV9P2yVhLp-12" style="rounded=0;orthogonalLoop=1;jettySize=auto;html=1;exitX=0;exitY=0.5;exitDx=0;exitDy=0;entryX=0;entryY=0.5;entryDx=0;entryDy=0;startArrow=classic;startFill=1;" parent="INLSH4rgKowV9P2yVhLp-2" source="INLSH4rgKowV9P2yVhLp-2" target="INLSH4rgKowV9P2yVhLp-8" edge="1">
                    <mxGeometry relative="1" as="geometry"/>
                </mxCell>
                <mxCell id="INLSH4rgKowV9P2yVhLp-14" style="edgeStyle=orthogonalEdgeStyle;rounded=0;orthogonalLoop=1;jettySize=auto;html=1;entryX=0.5;entryY=1;entryDx=0;entryDy=0;" parent="INLSH4rgKowV9P2yVhLp-2" source="INLSH4rgKowV9P2yVhLp-13" target="INLSH4rgKowV9P2yVhLp-9" edge="1">
                    <mxGeometry relative="1" as="geometry"/>
                </mxCell>
                <mxCell id="INLSH4rgKowV9P2yVhLp-13" value="Markdown" style="shape=cylinder3;whiteSpace=wrap;html=1;boundedLbl=1;backgroundOutline=1;size=15;" parent="INLSH4rgKowV9P2yVhLp-2" vertex="1">
                    <mxGeometry x="245" y="278" width="90" height="80" as="geometry"/>
                </mxCell>
                <mxCell id="INLSH4rgKowV9P2yVhLp-6" style="edgeStyle=orthogonalEdgeStyle;rounded=0;orthogonalLoop=1;jettySize=auto;html=1;entryX=0;entryY=0.5;entryDx=0;entryDy=0;entryPerimeter=0;startArrow=classic;startFill=1;" parent="1" source="INLSH4rgKowV9P2yVhLp-4" target="INLSH4rgKowV9P2yVhLp-5" edge="1">
                    <mxGeometry relative="1" as="geometry"/>
                </mxCell>
                <mxCell id="INLSH4rgKowV9P2yVhLp-4" value="Browser" style="whiteSpace=wrap;html=1;aspect=fixed;" parent="1" vertex="1">
                    <mxGeometry x="-580" y="562.5" width="80" height="80" as="geometry"/>
                </mxCell>
                <mxCell id="INLSH4rgKowV9P2yVhLp-7" style="edgeStyle=orthogonalEdgeStyle;rounded=0;orthogonalLoop=1;jettySize=auto;html=1;entryX=0;entryY=0.5;entryDx=0;entryDy=0;startArrow=classic;startFill=1;" parent="1" source="INLSH4rgKowV9P2yVhLp-5" target="INLSH4rgKowV9P2yVhLp-2" edge="1">
                    <mxGeometry relative="1" as="geometry"/>
                </mxCell>
                <mxCell id="INLSH4rgKowV9P2yVhLp-5" value="Cloudflare" style="shape=cylinder3;whiteSpace=wrap;html=1;boundedLbl=1;backgroundOutline=1;size=15;" parent="1" vertex="1">
                    <mxGeometry x="-390" y="562.5" width="120" height="80" as="geometry"/>
                </mxCell>
                <mxCell id="INLSH4rgKowV9P2yVhLp-19" value="Github API" style="shape=cylinder3;whiteSpace=wrap;html=1;boundedLbl=1;backgroundOutline=1;size=15;" parent="1" vertex="1">
                    <mxGeometry x="373" y="562.5" width="130" height="80" as="geometry"/>
                </mxCell>
            </root>
        </mxGraphModel>
    </diagram>
</mxfile>